<?xml version="1.0" encoding="utf-8"?>
<!-- Generator: Adobe Illustrator 19.2.1, SVG Export Plug-In . SVG Version: 6.00 Build 0)  -->
<svg version="1.1" id="Layer_1" xmlns="http://www.w3.org/2000/svg" xmlns:xlink="http://www.w3.org/1999/xlink" x="0px" y="0px"
	 viewBox="0 0 1432.3 1002.4" style="enable-background:new 0 0 1432.3 1002.4;" xml:space="preserve">
<style type="text/css">
	.st0{fill:none;stroke:#000000;stroke-width:0.15;stroke-linecap:round;stroke-linejoin:round;}
	.st1{fill:none;stroke:#A44646;stroke-width:0.15;stroke-linecap:round;stroke-linejoin:round;}
</style>
<g transform="scale(1,-1)">
	<path class="st0" d="M1430.1-735.7c0,7.8-6.3,14.2-14.2,14.2"/>
	<path class="st0" d="M1415.9-1005c7.8,0,14.2,6.3,14.2,14.2"/>
	<path class="st0" d="M12.8-990.9c0-7.8,6.3-14.2,14.2-14.2"/>
	<path class="st0" d="M27-721.6c-7.8,0-14.2-6.3-14.2-14.2"/>
	<path class="st0" d="M50.7-732.7c-1.4,6.5-7.2,11.2-13.8,11.2"/>
	<path class="st0" d="M50.7-732.7l10.1-46.6"/>
	<path class="st0" d="M62.4-794.4c0,5.1-0.5,10.1-1.6,15.1"/>
	<path class="st0" d="M62.4-794.4v-77.4"/>
	<path class="st0" d="M62.4-871.8c20.3-50.9,78.1-75.6,128.9-55.3c25.2,10.1,45.2,30.1,55.3,55.3"/>
	<path class="st0" d="M246.7-871.8v77.4"/>
	<path class="st0" d="M248.3-779.3c-1.1-4.9-1.6-10-1.6-15.1"/>
	<path class="st0" d="M248.3-779.3l10.1,46.6"/>
	<path class="st0" d="M272.2-721.6c-6.7,0-12.4-4.6-13.8-11.2"/>
	<path class="st0" d="M334.1-732.7c-1.4,6.5-7.2,11.2-13.8,11.2"/>
	<path class="st0" d="M334.1-732.7l10.1-46.6"/>
	<path class="st0" d="M345.9-794.4c0,5.1-0.5,10.1-1.6,15.1"/>
	<path class="st0" d="M345.9-794.4v-77.4"/>
	<path class="st0" d="M345.9-871.8c20.3-50.9,78.1-75.6,128.9-55.3C500-917,520-897,530.1-871.8"/>
	<path class="st0" d="M530.1-871.8v77.4"/>
	<path class="st0" d="M531.7-779.3c-1.1-4.9-1.6-10-1.6-15.1"/>
	<path class="st0" d="M531.7-779.3l10.1,46.6"/>
	<path class="st0" d="M555.7-721.6c-6.7,0-12.4-4.6-13.8-11.2"/>
	<path class="st0" d="M617.6-732.7c-1.4,6.5-7.2,11.2-13.8,11.2"/>
	<path class="st0" d="M617.6-732.7l10.1-46.6"/>
	<path class="st0" d="M629.3-794.4c0,5.1-0.5,10.1-1.6,15.1"/>
	<path class="st0" d="M629.3-794.4v-77.4"/>
	<path class="st0" d="M629.3-871.8c20.3-50.9,78.1-75.6,128.9-55.3c25.2,10.1,45.2,30.1,55.3,55.3"/>
	<path class="st0" d="M813.6-871.8v77.4"/>
	<path class="st0" d="M815.2-779.3c-1.1-4.9-1.6-10-1.6-15.1"/>
	<path class="st0" d="M815.2-779.3l10.1,46.6"/>
	<path class="st0" d="M839.2-721.6c-6.7,0-12.4-4.6-13.8-11.2"/>
	<path class="st0" d="M901-732.7c-1.4,6.5-7.2,11.2-13.8,11.2"/>
	<path class="st0" d="M901-732.7l10.1-46.6"/>
	<path class="st0" d="M912.8-794.4c0,5.1-0.5,10.1-1.6,15.1"/>
	<path class="st0" d="M912.8-794.4v-77.4"/>
	<path class="st0" d="M912.8-871.8c20.3-50.9,78.1-75.6,128.9-55.3C1067-917,1087-897,1097-871.8"/>
	<path class="st0" d="M1097-871.8v77.4"/>
	<path class="st0" d="M1098.7-779.3c-1.1-4.9-1.6-10-1.6-15.1"/>
	<path class="st0" d="M1098.7-779.3l10.1,46.6"/>
	<path class="st0" d="M1122.6-721.6c-6.7,0-12.4-4.6-13.8-11.2"/>
	<path class="st0" d="M1184.5-732.7c-1.4,6.5-7.2,11.2-13.8,11.2"/>
	<path class="st0" d="M1184.5-732.7l10.1-46.6"/>
	<path class="st0" d="M1196.3-794.4c0,5.1-0.5,10.1-1.6,15.1"/>
	<path class="st0" d="M1196.3-794.4v-77.4"/>
	<path class="st0" d="M1196.3-871.8c20.3-50.9,78.1-75.6,128.9-55.3c25.2,10.1,45.2,30.1,55.3,55.3"/>
	<path class="st0" d="M1380.5-871.8v77.4"/>
	<path class="st0" d="M1382.1-779.3c-1.1-4.9-1.6-10-1.6-15.1"/>
	<path class="st0" d="M1382.1-779.3l10.1,46.6"/>
	<path class="st0" d="M1406.1-721.6c-6.7,0-12.4-4.6-13.8-11.2"/>
	<circle class="st0" cx="41.1" cy="-976.7" r="7.8"/>
	<circle class="st0" cx="1401.8" cy="-976.7" r="7.8"/>
	<circle class="st0" cx="296.3" cy="-976.7" r="7.8"/>
	<path class="st0" d="M36.8-721.6H27"/>
	<path class="st0" d="M1430.1-990.9v255.1"/>
	<path class="st0" d="M27-1005h1389"/>
	<path class="st0" d="M12.8-735.7v-255.1"/>
	<path class="st0" d="M320.3-721.6h-48"/>
	<path class="st0" d="M603.7-721.6h-48"/>
	<path class="st0" d="M887.2-721.6h-48"/>
	<path class="st0" d="M1170.7-721.6h-48"/>
	<path class="st0" d="M1415.9-721.6h-9.8"/>
	<circle class="st0" cx="579.7" cy="-976.7" r="7.8"/>
	<circle class="st0" cx="863.2" cy="-976.7" r="7.8"/>
	<circle class="st0" cx="1146.7" cy="-976.7" r="7.8"/>
	<circle class="st0" cx="198.4" cy="-792.2" r="5"/>
	<circle class="st0" cx="110.6" cy="-792.2" r="5"/>
	<circle class="st0" cx="154.5" cy="-748.3" r="28.3"/>
	<path class="st0" d="M69.5-861.6c0-7.8,6.3-14.2,14.2-14.2"/>
	<path class="st0" d="M69.5-691.6v-170.1"/>
	<path class="st0" d="M83.6-677.4c-7.8,0-14.2-6.3-14.2-14.2"/>
	<path class="st0" d="M225.4-677.4H83.6"/>
	<path class="st0" d="M239.5-691.6c0,7.8-6.3,14.2-14.2,14.2"/>
	<path class="st0" d="M239.5-861.6v170.1"/>
	<path class="st0" d="M225.4-875.8c7.8,0,14.2,6.3,14.2,14.2"/>
	<path class="st0" d="M83.6-875.8h141.7"/>
	<circle class="st0" cx="110.6" cy="-704.3" r="5"/>
	<circle class="st0" cx="198.4" cy="-704.3" r="5"/>
	<circle class="st0" cx="97.8" cy="-847.5" r="7.8"/>
	<circle class="st0" cx="211.2" cy="-847.5" r="7.8"/>
	<circle class="st0" cx="1353.9" cy="-280" r="7.8"/>
	<circle class="st0" cx="1212.1" cy="-280" r="7.8"/>
	<circle class="st0" cx="1410.6" cy="-336.7" r="7.8"/>
	<circle class="st0" cx="1212.1" cy="-450.1" r="7.8"/>
	<path class="st0" d="M1198-195c-7.8,0-14.2-6.3-14.2-14.2"/>
	<path class="st0" d="M1237.1-195H1198"/>
	<path class="st0" d="M1243.5-196.5c-2,1-4.1,1.5-6.3,1.5"/>
	<path class="st0" d="M1431.1-290.3l-187.6,93.8"/>
	<path class="st0" d="M1438.9-303c0,5.4-3,10.3-7.8,12.7"/>
	<path class="st0" d="M1438.9-370.5v67.5"/>
	<path class="st0" d="M1431.1-383.2c4.8,2.4,7.8,7.3,7.8,12.7"/>
	<path class="st0" d="M1243.5-477l187.6,93.8"/>
	<path class="st0" d="M1237.1-478.5c2.2,0,4.4,0.5,6.3,1.5"/>
	<path class="st0" d="M1198-478.5h39.2"/>
	<path class="st0" d="M1183.8-464.3c0-7.8,6.3-14.2,14.2-14.2"/>
	<path class="st0" d="M1183.8-209.2v-255.1"/>
	<circle class="st0" cx="1212.1" cy="-223.3" r="7.8"/>
	<circle class="st0" cx="1353.9" cy="-336.7" r="7.8"/>
	<circle class="st0" cx="1212.1" cy="-393.4" r="7.8"/>
	<circle class="st0" cx="1353.9" cy="-393.4" r="7.8"/>
	<path class="st0" d="M674.6-288c-2.4,1.7-5.2,2.6-8.1,2.6"/>
	<path class="st0" d="M954.4-491.3c0,4.6-2.3,9-6,11.6"/>
	<path class="st0" d="M953.7-542.8c0.5,1.4,0.7,3,0.7,4.5"/>
	<path class="st0" d="M554.3-701c1.9-5.8,7.3-9.7,13.4-9.7"/>
	<path class="st0" d="M500.9-538.3c0-1.5,0.2-3,0.7-4.5"/>
	<path class="st0" d="M515-285.5c-7.8,0-14.2-6.3-14.2-14.2"/>
	<circle class="st0" cx="926.1" cy="-512.2" r="7.8"/>
	<circle class="st0" cx="585.9" cy="-682.3" r="10.1"/>
	<circle class="st0" cx="529.2" cy="-313.8" r="7.8"/>
	<circle class="st0" cx="529.2" cy="-512.2" r="7.8"/>
	<circle class="st0" cx="642.6" cy="-512.2" r="7.8"/>
	<circle class="st0" cx="812.7" cy="-512.2" r="7.8"/>
	<circle class="st0" cx="869.4" cy="-682.3" r="10.1"/>
	<path class="st0" d="M887.5-710.7c6.1,0,11.5,3.9,13.4,9.7"/>
	<path class="st0" d="M500.9-538.3v238.6"/>
	<path class="st0" d="M554.3-701l-52.7,158.2"/>
	<path class="st0" d="M887.5-710.7H567.8"/>
	<path class="st0" d="M953.7-542.8L901-701"/>
	<path class="st0" d="M954.4-491.3v-47"/>
	<path class="st0" d="M674.6-288l273.8-191.6"/>
	<path class="st0" d="M515-285.5h151.4"/>
	<circle class="st0" cx="585.9" cy="-313.8" r="7.8"/>
	<circle class="st0" cx="642.6" cy="-313.8" r="7.8"/>
	<circle class="st0" cx="529.2" cy="-427.2" r="7.8"/>
	<circle class="st0" cx="585.9" cy="-427.2" r="7.8"/>
	<circle class="st0" cx="642.6" cy="-427.2" r="7.8"/>
	<circle class="st0" cx="121.8" cy="-316.9" r="5"/>
	<circle class="st0" cx="33.9" cy="-316.9" r="5"/>
	<path class="st0" d="M460.5-216.2c0,7.8-6.3,14.2-14.2,14.2"/>
	<path class="st0" d="M446.4-627.3c7.8,0,14.2,6.3,14.2,14.2"/>
	<path class="st0" d="M7-613.1c0-7.8,6.3-14.2,14.2-14.2"/>
	<path class="st0" d="M21.2-202.1c-7.8,0-14.2-6.3-14.2-14.2"/>
	<circle class="st0" cx="35.3" cy="-598.9" r="10.1"/>
	<circle class="st0" cx="432.2" cy="-372.1" r="7.8"/>
	<circle class="st0" cx="35.3" cy="-372.1" r="7.8"/>
	<circle class="st0" cx="432.2" cy="-598.9" r="10.1"/>
	<circle class="st0" cx="375.5" cy="-598.9" r="10.1"/>
	<circle class="st0" cx="262.1" cy="-598.9" r="7.8"/>
	<circle class="st0" cx="375.5" cy="-230.4" r="10.1"/>
	<circle class="st0" cx="233.8" cy="-372.1" r="7.8"/>
	<circle class="st0" cx="262.1" cy="-315.4" r="7.8"/>
	<circle class="st0" cx="33.9" cy="-229" r="5"/>
	<circle class="st0" cx="121.8" cy="-229" r="5"/>
	<circle class="st0" cx="77.9" cy="-272.9" r="8.5"/>
	<circle class="st0" cx="191.3" cy="-598.9" r="7.8"/>
	<circle class="st0" cx="134.6" cy="-598.9" r="7.8"/>
	<path class="st0" d="M92-386.3h28.3"/>
	<path class="st0" d="M120.4-386.3c7.8,0,14.2,6.3,14.2,14.2s-6.3,14.2-14.2,14.2"/>
	<path class="st0" d="M120.4-358H92"/>
	<path class="st0" d="M92-358c-7.8,0-14.2-6.3-14.2-14.2s6.3-14.2,14.2-14.2"/>
	<circle class="st0" cx="375.5" cy="-287.1" r="7.8"/>
	<circle class="st0" cx="432.2" cy="-287.1" r="7.8"/>
	<circle class="st0" cx="213.9" cy="-244.6" r="7.8"/>
	<circle class="st0" cx="253.6" cy="-244.6" r="7.8"/>
	<path class="st0" d="M446.4-202.1H21.2"/>
	<path class="st0" d="M460.5-613.1v396.9"/>
	<path class="st0" d="M21.2-627.3h425.2"/>
	<path class="st0" d="M7-216.2v-396.9"/>
	<circle class="st0" cx="1005.1" cy="-863.3" r="22.7"/>
	<path class="st0" d="M934.3-735.8c-7.8,0-14.2-6.3-14.2-14.2"/>
	<path class="st0" d="M1076-735.8H934.3"/>
	<path class="st0" d="M1090.2-749.9c0,7.8-6.3,14.2-14.2,14.2"/>
	<path class="st0" d="M1090.2-803.8v53.9"/>
	<path class="st0" d="M1088.3-810.9c1.2,2.2,1.9,4.6,1.9,7.1"/>
	<path class="st0" d="M1037.6-898.8l50.7,87.8"/>
	<path class="st0" d="M1025.3-905.8c5.1,0,9.7,2.7,12.3,7.1"/>
	<path class="st0" d="M985-905.8h40.3"/>
	<path class="st0" d="M972.7-898.8c2.5-4.4,7.2-7.1,12.3-7.1"/>
	<path class="st0" d="M922-810.9l50.7-87.8"/>
	<path class="st0" d="M920.1-803.8c0-2.5,0.7-4.9,1.9-7.1"/>
	<path class="st0" d="M920.1-749.9v-53.9"/>
	<circle class="st0" cx="1061.8" cy="-764.1" r="7.8"/>
	<circle class="st0" cx="948.5" cy="-764.1" r="7.8"/>
	<circle class="st0" cx="1267.2" cy="-628.6" r="7.8"/>
	<circle class="st0" cx="1408.9" cy="-628.6" r="7.8"/>
	<circle class="st0" cx="1210.5" cy="-571.9" r="7.8"/>
	<circle class="st0" cx="1408.9" cy="-458.5" r="7.8"/>
	<path class="st0" d="M1423.1-713.6c7.8,0,14.2,6.3,14.2,14.2"/>
	<path class="st0" d="M1383.9-713.6h39.2"/>
	<path class="st0" d="M1377.6-712.1c2-1,4.1-1.5,6.3-1.5"/>
	<path class="st0" d="M1190-618.3l187.6-93.8"/>
	<path class="st0" d="M1182.1-605.6c0-5.4,3-10.3,7.8-12.7"/>
	<path class="st0" d="M1182.1-538.1v-67.5"/>
	<path class="st0" d="M1190-525.4c-4.8-2.4-7.8-7.3-7.8-12.7"/>
	<path class="st0" d="M1377.6-431.6L1190-525.4"/>
	<path class="st0" d="M1383.9-430.1c-2.2,0-4.4-0.5-6.3-1.5"/>
	<path class="st0" d="M1423.1-430.1h-39.2"/>
	<path class="st0" d="M1437.2-444.3c0,7.8-6.3,14.2-14.2,14.2"/>
	<path class="st0" d="M1437.2-699.4v255.1"/>
	<circle class="st0" cx="1408.9" cy="-685.2" r="7.8"/>
	<circle class="st0" cx="1267.2" cy="-571.9" r="7.8"/>
	<circle class="st0" cx="1408.9" cy="-515.2" r="7.8"/>
	<circle class="st0" cx="1267.2" cy="-515.2" r="7.8"/>
	<circle class="st0" cx="687.1" cy="-805.4" r="7.8"/>
	<circle class="st0" cx="687.1" cy="-870.6" r="7.8"/>
	<path class="st0" d="M715.4-828.1c0-7.8,6.3-14.2,14.2-14.2l0,0"/>
	<path class="st0" d="M758-842.2h-28.3"/>
	<path class="st0" d="M772.1-856.4c0,7.8-6.3,14.2-14.2,14.2"/>
	<path class="st0" d="M772.1-884.7v28.3"/>
	<path class="st0" d="M758-898.9c7.8,0,14.2,6.3,14.2,14.2"/>
	<path class="st0" d="M672.9-898.9h85"/>
	<path class="st0" d="M658.8-884.7c0-7.8,6.3-14.2,14.2-14.2"/>
	<path class="st0" d="M658.8-743v-141.7"/>
	<path class="st0" d="M672.9-728.8c-7.8,0-14.2-6.3-14.2-14.2"/>
	<path class="st0" d="M701.3-728.8h-28.3"/>
	<path class="st0" d="M715.4-743c0,7.8-6.3,14.2-14.2,14.2"/>
	<path class="st0" d="M715.4-828.1v85"/>
	<circle class="st0" cx="743.8" cy="-870.6" r="7.8"/>
	<circle class="st0" cx="687.1" cy="-765.7" r="7.8"/>
	<circle class="st0" cx="1411" cy="-31.3" r="7.8"/>
	<path class="st0" d="M1439.3-17.2c0,7.8-6.3,14.2-14.2,14.2"/>
	<path class="st0" d="M1439.3-215.6v198.4"/>
	<path class="st0" d="M1425.1-229.8c7.8,0,14.2,6.3,14.2,14.2"/>
	<path class="st0" d="M1330.6-229.8h94.5"/>
	<path class="st0" d="M1322.1-226.9c2.5-1.8,5.4-2.8,8.5-2.8"/>
	<path class="st0" d="M1104.8-63.9l217.3-163"/>
	<path class="st0" d="M1099.1-52.6c0-4.5,2.1-8.7,5.7-11.3"/>
	<path class="st0" d="M1099.1-17.2v-35.4"/>
	<path class="st0" d="M1113.3-3c-7.8,0-14.2-6.3-14.2-14.2"/>
	<path class="st0" d="M1425.1-3h-311.8"/>
	<circle class="st0" cx="1354.3" cy="-31.3" r="7.8"/>
	<circle class="st0" cx="1297.6" cy="-31.3" r="7.8"/>
	<circle class="st0" cx="1240.9" cy="-31.3" r="7.8"/>
	<circle class="st0" cx="1184.2" cy="-31.3" r="7.8"/>
	<circle class="st0" cx="1127.5" cy="-31.3" r="7.8"/>
	<circle class="st0" cx="1354.3" cy="-201.4" r="7.8"/>
	<circle class="st0" cx="1411" cy="-201.4" r="7.8"/>
	<circle class="st0" cx="1143.9" cy="-680" r="7.8"/>
	<path class="st0" d="M1158-708.4c7.8,0,14.2,6.3,14.2,14.2"/>
	<path class="st0" d="M959.6-708.4H1158"/>
	<path class="st0" d="M945.4-694.2c0-7.8,6.3-14.2,14.2-14.2"/>
	<path class="st0" d="M945.4-599.7v-94.5"/>
	<path class="st0" d="M948.3-591.2c-1.8-2.5-2.8-5.4-2.8-8.5"/>
	<path class="st0" d="M1111.3-373.9l-163-217.3"/>
	<path class="st0" d="M1122.6-368.2c-4.5,0-8.7-2.1-11.3-5.7"/>
	<path class="st0" d="M1158-368.2h-35.4"/>
	<path class="st0" d="M1172.2-382.4c0,7.8-6.3,14.2-14.2,14.2"/>
	<path class="st0" d="M1172.2-694.2v311.8"/>
	<circle class="st0" cx="1143.9" cy="-623.3" r="7.8"/>
	<circle class="st0" cx="1143.9" cy="-566.6" r="7.8"/>
	<circle class="st0" cx="1143.9" cy="-510" r="7.8"/>
	<circle class="st0" cx="1143.9" cy="-453.3" r="7.8"/>
	<circle class="st0" cx="1143.9" cy="-396.6" r="7.8"/>
	<circle class="st0" cx="973.8" cy="-623.3" r="7.8"/>
	<circle class="st0" cx="973.8" cy="-680" r="7.8"/>
	<circle class="st0" cx="439.9" cy="-662.1" r="7.8"/>
	<circle class="st0" cx="383.2" cy="-662.1" r="7.8"/>
	<circle class="st0" cx="383.2" cy="-803.8" r="7.8"/>
	<path class="st0" d="M369-633.8c-7.8,0-14.2-6.3-14.2-14.2"/>
	<path class="st0" d="M510.8-633.8H369"/>
	<path class="st0" d="M524.9-647.9c0,7.8-6.3,14.2-14.2,14.2"/>
	<path class="st0" d="M524.9-687.1v39.2"/>
	<path class="st0" d="M523.4-693.4c1,2,1.5,4.1,1.5,6.3"/>
	<path class="st0" d="M429.6-881l93.8,187.6"/>
	<path class="st0" d="M417-888.9c5.4,0,10.3,3,12.7,7.8"/>
	<path class="st0" d="M369-888.9H417"/>
	<path class="st0" d="M354.9-874.7c0-7.8,6.3-14.2,14.2-14.2"/>
	<path class="st0" d="M354.9-647.9v-226.8"/>
	<circle class="st0" cx="383.2" cy="-860.5" r="7.8"/>
	<circle class="st0" cx="439.9" cy="-803.8" r="7.8"/>
	<circle class="st0" cx="496.6" cy="-662.1" r="7.8"/>
	<circle class="st0" cx="556.4" cy="-32.5" r="7.8"/>
	<circle class="st0" cx="499.7" cy="-32.5" r="7.8"/>
	<circle class="st0" cx="499.7" cy="-174.2" r="7.8"/>
	<path class="st0" d="M485.5-4.1c-7.8,0-14.2-6.3-14.2-14.2"/>
	<path class="st0" d="M627.3-4.1H485.5"/>
	<path class="st0" d="M641.5-18.3c0,7.8-6.3,14.2-14.2,14.2"/>
	<path class="st0" d="M641.5-57.5v39.2"/>
	<path class="st0" d="M640-63.8c1,2,1.5,4.1,1.5,6.3"/>
	<path class="st0" d="M546.2-251.4L640-63.8"/>
	<path class="st0" d="M533.5-259.2c5.4,0,10.3,3,12.7,7.8"/>
	<path class="st0" d="M485.5-259.2h47.9"/>
	<path class="st0" d="M471.4-245.1c0-7.8,6.3-14.2,14.2-14.2"/>
	<path class="st0" d="M471.4-18.3v-226.8"/>
	<circle class="st0" cx="499.7" cy="-230.9" r="7.8"/>
	<circle class="st0" cx="556.4" cy="-174.2" r="7.8"/>
	<circle class="st0" cx="613.1" cy="-32.5" r="7.8"/>
	<circle class="st0" cx="40.9" cy="-109.5" r="7.8"/>
	<circle class="st0" cx="40.9" cy="-166.2" r="7.8"/>
	<circle class="st0" cx="182.7" cy="-166.2" r="7.8"/>
	<path class="st0" d="M12.6-180.4c0-7.8,6.3-14.2,14.2-14.2"/>
	<path class="st0" d="M12.6-38.6v-141.7"/>
	<path class="st0" d="M26.8-24.4c-7.8,0-14.2-6.3-14.2-14.2"/>
	<path class="st0" d="M65.9-24.4H26.8"/>
	<path class="st0" d="M72.3-25.9c-2,1-4.1,1.5-6.3,1.5"/>
	<path class="st0" d="M259.9-119.7L72.3-25.9"/>
	<path class="st0" d="M267.7-132.4c0,5.4-3,10.3-7.8,12.7"/>
	<path class="st0" d="M267.7-180.4v47.9"/>
	<path class="st0" d="M253.5-194.5c7.8,0,14.2,6.3,14.2,14.2"/>
	<path class="st0" d="M26.8-194.5h226.8"/>
	<circle class="st0" cx="239.4" cy="-166.2" r="7.8"/>
	<circle class="st0" cx="182.7" cy="-109.5" r="7.8"/>
	<circle class="st0" cx="40.9" cy="-52.8" r="7.8"/>
	<path class="st0" d="M895.9-425.3c2.4-1.7,5.2-2.6,8.1-2.6"/>
	<path class="st0" d="M616.1-222c0-4.6,2.3-9,6-11.6"/>
	<path class="st0" d="M616.8-170.5c-0.5-1.4-0.7-3-0.7-4.5"/>
	<path class="st0" d="M1016.2-12.3c-1.9,5.8-7.3,9.7-13.4,9.7"/>
	<path class="st0" d="M1069.6-175c0,1.5-0.2,3-0.7,4.5"/>
	<path class="st0" d="M1055.4-427.8c7.8,0,14.2,6.3,14.2,14.2"/>
	<circle class="st0" cx="644.4" cy="-201.1" r="7.8"/>
	<circle class="st0" cx="984.6" cy="-31" r="10.1"/>
	<circle class="st0" cx="1041.3" cy="-399.5" r="7.8"/>
	<circle class="st0" cx="1041.3" cy="-201.1" r="7.8"/>
	<circle class="st0" cx="927.9" cy="-201.1" r="7.8"/>
	<circle class="st0" cx="757.8" cy="-201.1" r="7.8"/>
	<circle class="st0" cx="701.1" cy="-31" r="10.1"/>
	<path class="st0" d="M683-2.6c-6.1,0-11.5-3.9-13.4-9.7"/>
	<path class="st0" d="M1069.6-175v-238.6"/>
	<path class="st0" d="M1016.2-12.3l52.7-158.2"/>
	<path class="st0" d="M683-2.6h319.7"/>
	<path class="st1" d="M616.8-170.5l52.7,158.2"/>
	<path class="st0" d="M616.1-222v47"/>
	<path class="st0" d="M895.9-425.3L622.1-233.6"/>
	<path class="st0" d="M1055.4-427.8H904"/>
	<circle class="st0" cx="984.6" cy="-399.5" r="7.8"/>
	<circle class="st0" cx="927.9" cy="-399.5" r="7.8"/>
	<circle class="st0" cx="1041.3" cy="-286.1" r="7.8"/>
	<circle class="st0" cx="984.6" cy="-286.1" r="7.8"/>
	<circle class="st0" cx="927.9" cy="-286.1" r="7.8"/>
	<circle class="st0" cx="430.6" cy="-90.9" r="7.8"/>
	<circle class="st0" cx="430.6" cy="-34.2" r="7.8"/>
	<circle class="st0" cx="288.9" cy="-34.2" r="7.8"/>
	<path class="st0" d="M459-20c0,7.8-6.3,14.2-14.2,14.2"/>
	<path class="st0" d="M459-161.8V-20"/>
	<path class="st0" d="M444.8-175.9c7.8,0,14.2,6.3,14.2,14.2"/>
	<path class="st0" d="M405.6-175.9h39.2"/>
	<path class="st0" d="M399.3-174.4c2-1,4.1-1.5,6.3-1.5"/>
	<path class="st0" d="M211.7-80.6l187.6-93.8"/>
	<path class="st0" d="M203.9-68c0-5.4,3-10.3,7.8-12.7"/>
	<path class="st0" d="M203.9-20V-68"/>
	<path class="st0" d="M218-5.8c-7.8,0-14.2-6.3-14.2-14.2"/>
	<path class="st0" d="M444.8-5.8H218"/>
	<circle class="st0" cx="232.2" cy="-34.2" r="7.8"/>
	<circle class="st0" cx="288.9" cy="-90.9" r="7.8"/>
	<circle class="st0" cx="430.6" cy="-147.6" r="7.8"/>
</g>
</svg>
